<svg xmlns="http://www.w3.org/2000/svg" width="68.48" height="25.68" viewBox="0 0 68.48 25.68">
    <defs>
        <style>
            .cls-1{fill:#3131ff}
        </style>
    </defs>
    <g id="Group_8422" transform="rotate(90 991.747 -490.771)">
        <circle id="Ellipse_1" cx="2.634" cy="2.634" r="2.634" class="cls-1" transform="translate(1492.395 432.496)"/>
        <circle id="Ellipse_1-2" cx="2.634" cy="2.634" r="2.634" class="cls-1" transform="translate(1492.395 443.032)"/>
        <circle id="Ellipse_1-3" cx="2.634" cy="2.634" r="2.634" class="cls-1" transform="translate(1492.395 453.567)"/>
        <circle id="Ellipse_1-4" cx="2.634" cy="2.634" r="2.634" class="cls-1" transform="translate(1492.395 485.173)"/>
        <circle id="Ellipse_860" cx="2.634" cy="2.634" r="2.634" class="cls-1" transform="translate(1492.395 474.638)"/>
        <circle id="Ellipse_863" cx="2.634" cy="2.634" r="2.634" class="cls-1" transform="translate(1492.395 464.102)"/>
        <circle id="Ellipse_1-5" cx="2.634" cy="2.634" r="2.634" class="cls-1" transform="translate(1492.395 495.709)"/>
        <circle id="Ellipse_1-6" cx="2.634" cy="2.634" r="2.634" class="cls-1" transform="translate(1482.518 443.032)"/>
        <circle id="Ellipse_1-7" cx="2.634" cy="2.634" r="2.634" class="cls-1" transform="translate(1482.518 453.567)"/>
        <circle id="Ellipse_1-8" cx="2.634" cy="2.634" r="2.634" class="cls-1" transform="translate(1482.518 485.173)"/>
        <circle id="Ellipse_859" cx="2.634" cy="2.634" r="2.634" class="cls-1" transform="translate(1482.518 474.638)"/>
        <circle id="Ellipse_862" cx="2.634" cy="2.634" r="2.634" class="cls-1" transform="translate(1482.518 464.102)"/>
        <circle id="Ellipse_1-9" cx="2.634" cy="2.634" r="2.634" class="cls-1" transform="translate(1482.518 495.709)"/>
        <circle id="Ellipse_1-10" cx="2.634" cy="2.634" r="2.634" class="cls-1" transform="translate(1502.93 443.032)"/>
        <circle id="Ellipse_1-11" cx="2.634" cy="2.634" r="2.634" class="cls-1" transform="translate(1502.93 453.567)"/>
        <circle id="Ellipse_1-12" cx="2.634" cy="2.634" r="2.634" class="cls-1" transform="translate(1502.93 485.173)"/>
        <circle id="Ellipse_858" cx="2.634" cy="2.634" r="2.634" class="cls-1" transform="translate(1502.93 474.638)"/>
        <circle id="Ellipse_861" cx="2.634" cy="2.634" r="2.634" class="cls-1" transform="translate(1502.93 464.102)"/>
    </g>
</svg>
