<svg xmlns="http://www.w3.org/2000/svg" id="Group_7976" width="12.23" height="11.273" viewBox="0 0 12.23 11.273">
    <defs>
        <style>
            .cls-1{fill:#394256}
        </style>
    </defs>
    <g id="Group_7974" transform="translate(6.008)">
        <path id="iconfinder_right_arrow_next_forward_navigation_3994400" d="M5.943 6.359l-4.667 4.7a.69.69 0 0 1-1.1-.12 1.079 1.079 0 0 1 .1-1.324L4.23 5.637.28 1.662A1.079 1.079 0 0 1 .18.338a.69.69 0 0 1 1.1-.12l4.667 4.7a1.072 1.072 0 0 1 0 1.444z" class="cls-1"/>
    </g>
    <g id="Group_7975">
        <path id="iconfinder_right_arrow_next_forward_navigation_3994400-2" d="M5.943 6.359l-4.667 4.7a.69.69 0 0 1-1.1-.12 1.079 1.079 0 0 1 .1-1.324L4.23 5.637.28 1.662A1.079 1.079 0 0 1 .18.338a.69.69 0 0 1 1.1-.12l4.667 4.7a1.072 1.072 0 0 1 0 1.444z" class="cls-1"/>
    </g>
</svg>
