<svg xmlns="http://www.w3.org/2000/svg" width="14" height="13.14" viewBox="0 0 14 13.14">
    <g>
        <path fill="#3131ff" d="M11.95 16.279a7 7 0 0 0-10.987 8.5 7.039 7.039 0 0 0 2.527 2.508.607.607 0 0 0 .61-1.05 5.786 5.786 0 1 1 8.686-5.008 4.816 4.816 0 0 1-1.056 3.253 2.811 2.811 0 0 1-2.071 1 1.949 1.949 0 0 1-1.926-1.45 2.683 2.683 0 0 0 2.136-2.623v-1.771a.152.152 0 0 0-.152-.152H8.9V17.83a.607.607 0 0 0-1.214 0v1.656H6.31V17.83a.607.607 0 0 0-1.214 0v1.656h-.812a.152.152 0 0 0-.152.152v1.769a2.683 2.683 0 0 0 2.358 2.66 3.388 3.388 0 0 0 .881 1.695 3.169 3.169 0 0 0 2.288.934 4.023 4.023 0 0 0 2.98-1.408A5.918 5.918 0 0 0 14 21.229a6.954 6.954 0 0 0-2.05-4.95z" transform="translate(0 -14.229)"/>
    </g>
</svg>
