<svg xmlns="http://www.w3.org/2000/svg" width="49.503" height="54.097" viewBox="0 0 49.503 54.097">
    <defs>
        <style>
            .cls-2{fill:#394256}
        </style>
    </defs>
    <g id="Group_8423" transform="translate(-304.497 -458.815)">
        <path id="Polygon_33" fill="#fff" d="M17.718 6.9a5 5 0 0 1 8.512 0l13.017 21.109a5 5 0 0 1-4.256 7.624H8.958A5 5 0 0 1 4.7 28.009z" opacity="0.894" transform="rotate(68 -171.342 479.617)"/>
        <g id="_4178600" transform="translate(316.811 483.126)">
            <path id="Path_7184" d="M95.339 16.06a1.164 1.164 0 0 0 .232-1.629 10.517 10.517 0 0 1 0-12.568 1.164 1.164 0 1 0-1.861-1.4 12.857 12.857 0 0 0 0 15.363 1.164 1.164 0 0 0 1.629.232z" class="cls-2" transform="translate(-91.162)"/>
            <path id="Path_7185" d="M361.48 16.06a1.164 1.164 0 0 0 1.629-.232 12.857 12.857 0 0 0 0-15.363 1.164 1.164 0 0 0-1.861 1.4 10.517 10.517 0 0 1 0 12.568 1.164 1.164 0 0 0 .232 1.627z" class="cls-2" transform="translate(-340.078)"/>
            <path id="Path_7186" d="M154.756 41.343a1.164 1.164 0 0 0 .091-1.643 5.808 5.808 0 0 1 0-7.758 1.164 1.164 0 1 0-1.734-1.553 8.156 8.156 0 0 0 0 10.863 1.164 1.164 0 0 0 1.643.091z" class="cls-2" transform="translate(-146.395 -27.674)"/>
            <path id="Path_7187" d="M308.473 41.343a1.164 1.164 0 0 0 1.643-.091 8.157 8.157 0 0 0 0-10.863 1.164 1.164 0 0 0-1.734 1.553 5.808 5.808 0 0 1 0 7.758 1.164 1.164 0 0 0 .091 1.643z" class="cls-2" transform="translate(-291.255 -27.674)"/>
            <path id="Path_7188" fill="#335aff" d="M214.492 66.984A3.491 3.491 0 1 0 211 63.492a3.5 3.5 0 0 0 3.492 3.492zm0-4.655a1.164 1.164 0 1 1-1.164 1.164 1.165 1.165 0 0 1 1.164-1.164z" transform="translate(-201.703 -55.346)"/>
        </g>
    </g>
</svg>
