<svg xmlns="http://www.w3.org/2000/svg" width="16.663" height="16.658" viewBox="0 0 16.663 16.658">
    <defs>
        <style>
            .cls-1{fill:#6ca7fa}
        </style>
    </defs>
    <g id="_2956788" transform="translate(-15.887 496.026)">
        <path id="Path_7062" d="M23.217-495.969a1.615 1.615 0 0 0-.736.43 1.632 1.632 0 0 0-.481 1.117.6.6 0 0 1-.2.489c-.226.187-.482.156-.767-.1a1.575 1.575 0 0 0-1.117-.437c-.576 0-.819.132-1.53.833a8.369 8.369 0 0 0-.666.718 1.554 1.554 0 0 0-.26.9 1.583 1.583 0 0 0 .462 1.159c.236.274.257.51.069.732a.542.542 0 0 1-.468.208 1.649 1.649 0 0 0-1.572 1.239 8.707 8.707 0 0 0 0 1.971 1.66 1.66 0 0 0 1.582 1.232.5.5 0 0 1 .309.076.534.534 0 0 1 .056.892 1.653 1.653 0 0 0-.368 1.631c.115.34.257.524.861 1.121a2.726 2.726 0 0 0 .826.677 1.1 1.1 0 0 0 .691.132 1.08 1.08 0 0 0 .677-.125 2.52 2.52 0 0 0 .462-.3c.285-.253.524-.281.76-.083a.592.592 0 0 1 .2.486 1.862 1.862 0 0 0 .194.743 1.858 1.858 0 0 0 .666.666 2.474 2.474 0 0 0 1.36.194c.857 0 1.048-.028 1.364-.2a1.643 1.643 0 0 0 .854-1.371.863.863 0 0 1 .1-.4c.236-.316.545-.326.885-.021a1.713 1.713 0 0 0 .625.364 1.344 1.344 0 0 0 .566.059 1.172 1.172 0 0 0 .625-.142c.253-.121.333-.187.874-.729s.607-.621.729-.874a1.172 1.172 0 0 0 .142-.625 1.53 1.53 0 0 0-.455-1.228c-.236-.274-.257-.514-.069-.736a.549.549 0 0 1 .468-.2 1.633 1.633 0 0 0 1.138-.482 1.617 1.617 0 0 0 .434-.75 9.821 9.821 0 0 0 .017-1.895 1.666 1.666 0 0 0-1.569-1.315.6.6 0 0 1-.489-.2c-.191-.229-.167-.465.08-.746a1.6 1.6 0 0 0 .458-1.163 1.617 1.617 0 0 0-.267-.885 7.9 7.9 0 0 0-.67-.722 2.726 2.726 0 0 0-.826-.677 1.1 1.1 0 0 0-.691-.132 1.08 1.08 0 0 0-.677.125 2.32 2.32 0 0 0-.437.285c-.278.25-.5.3-.708.153s-.246-.232-.281-.566a1.606 1.606 0 0 0-.271-.836 1.586 1.586 0 0 0-.965-.687 9.037 9.037 0 0 0-1.994-.005zm1.836 1.124a.551.551 0 0 1 .278.5 1.736 1.736 0 0 0 .451 1.128 1.624 1.624 0 0 0 2.273.1 2.522 2.522 0 0 1 .253-.194.67.67 0 0 1 .465 0 9.743 9.743 0 0 1 1 .982.429.429 0 0 1 .1.305c0 .2-.031.271-.232.489a1.637 1.637 0 0 0-.4 1.333 1.659 1.659 0 0 0 1.624 1.4.551.551 0 0 1 .5.278c.062.121.069.2.069.833s-.007.711-.069.833a.551.551 0 0 1-.5.278 1.714 1.714 0 0 0-1.381.75 1.661 1.661 0 0 0 .142 1.968c.212.236.246.305.246.493 0 .219-.024.253-.5.743-.514.524-.611.593-.826.593s-.271-.031-.482-.229a1.657 1.657 0 0 0-1.988-.16 1.714 1.714 0 0 0-.75 1.381.551.551 0 0 1-.278.5c-.121.062-.2.069-.833.069s-.711-.007-.833-.069a.55.55 0 0 1-.278-.51 1.961 1.961 0 0 0-.2-.788 1.955 1.955 0 0 0-.652-.652 1.66 1.66 0 0 0-1.884.229c-.212.2-.278.229-.482.229s-.312-.069-.826-.593c-.472-.486-.5-.524-.5-.736s.031-.267.232-.486a1.7 1.7 0 0 0 .4-.829 1.652 1.652 0 0 0-1.621-1.9.551.551 0 0 1-.5-.278c-.062-.121-.069-.2-.069-.836a2.363 2.363 0 0 1 .056-.815c.094-.194.226-.264.566-.295a1.607 1.607 0 0 0 1.28-.687 1.636 1.636 0 0 0-.094-2.027c-.212-.239-.246-.305-.246-.5a.43.43 0 0 1 .1-.312 9.743 9.743 0 0 1 1-.982.67.67 0 0 1 .465 0 1.885 1.885 0 0 1 .246.194 1.635 1.635 0 0 0 1.315.4 1.833 1.833 0 0 0 .906-.437 1.642 1.642 0 0 0 .507-1.131c.031-.344.1-.472.288-.566a2.212 2.212 0 0 1 .819-.059c.641-.007.717 0 .842.063z" class="cls-1"/>
        <path id="Path_7063" d="M147.361-367.811a3.951 3.951 0 0 0-2.467 1.482 3.893 3.893 0 0 0 .177 4.921 3.936 3.936 0 0 0 3.5 1.27 3.891 3.891 0 0 0 3.265-3.335 3.91 3.91 0 0 0-1.426-3.533 3.925 3.925 0 0 0-3.049-.805zm1.284 1.142a2.633 2.633 0 0 1 .843.368 2.764 2.764 0 0 1 .847 3.789 2.773 2.773 0 0 1-4.306.5 2.619 2.619 0 0 1-.8-1.961 2.5 2.5 0 0 1 .427-1.5 2.824 2.824 0 0 1 1.825-1.228 3.427 3.427 0 0 1 1.164.032z" class="cls-1" transform="translate(-123.766 -123.72)"/>
    </g>
</svg>
