<svg xmlns="http://www.w3.org/2000/svg" width="26.859" height="29.619" viewBox="0 0 26.859 29.619">
    <defs>
        <style>
            .cls-1{fill:#1f009e}
        </style>
    </defs>
    <g id="Group_8320" transform="rotate(40 3.822 6.727)">
        <g id="Group_8205" transform="rotate(10.02 .687 7.836)">
            <g id="Group_8204">
                <path id="Path_6533" d="M31.794 6.55a22.285 22.285 0 0 0-31.561 0 .8.8 0 1 0 1.129 1.127 20.689 20.689 0 0 1 29.259-.044l.044.044a.8.8 0 1 0 1.129-1.127z" class="cls-1"/>
            </g>
        </g>
        <g id="Group_8207" transform="rotate(10.02 -43.342 37.672)">
            <g id="Group_8206">
                <path id="Path_6534" d="M20.107 4.129a14.066 14.066 0 0 0-19.91 0 .7.7 0 0 0 1 1 12.658 12.658 0 0 1 17.9-.017l.017.017a.7.7 0 0 0 1-1z" class="cls-1"/>
            </g>
        </g>
        <g id="Group_8209" transform="rotate(10.02 -86.143 62.82)">
            <g id="Group_8208">
                <path id="Path_6535" d="M10.088 2.061l-.014-.014a7 7 0 0 0-9.894 0 .583.583 0 1 0 .808.841L1 2.874a5.836 5.836 0 0 1 8.25 0 .583.583 0 0 0 .836-.813z" class="cls-1"/>
            </g>
        </g>
    </g>
</svg>
