<svg xmlns="http://www.w3.org/2000/svg" id="_38488" width="19.831" height="17.496" viewBox="0 0 19.831 17.496">
    <defs>
        <style>
            .cls-1{fill:#4c4f50}
        </style>
    </defs>
    <g id="Group_7643">
        <path id="Path_6210" d="M3.438 149.765l1.537-1.537a9.594 9.594 0 0 1-2.314-1.954 9.611 9.611 0 0 1 3.707-2.649 3.862 3.862 0 0 0 .011 3.2l1.241-1.241a1.067 1.067 0 1 1 1.509-1.51l1.128-1.128 1.27-1.27.637-.637a11.6 11.6 0 0 0-2.248-.224 11.724 11.724 0 0 0-9.465 4.836l-.451.623.451.622a11.687 11.687 0 0 0 2.987 2.869z" class="cls-1" transform="translate(0 -137.102)"/>
        <path id="Path_6211" d="M211.893 189l-1.555 1.555a9.6 9.6 0 0 1 2.807 2.234 9.6 9.6 0 0 1-7.255 3.337 9.478 9.478 0 0 1-1.063-.06l-1.816 1.816a11.6 11.6 0 0 0 2.878.366 11.724 11.724 0 0 0 9.465-4.836l.451-.622-.451-.622a11.7 11.7 0 0 0-3.461-3.168z" class="cls-1" transform="translate(-195.975 -183.614)"/>
        <path id="Path_6212" d="M270.216 255.745a3.861 3.861 0 0 0 3.843-4.458l-4.411 4.412a3.9 3.9 0 0 0 .568.046z" class="cls-1" transform="translate(-260.3 -243.744)"/>
        <path id="Path_6213" d="M42.209 45.467l4.956-4.956.173-.173 1.587-1.587 3.008-3.008a1.2 1.2 0 1 0-1.7-1.7L46.478 37.8l-.789.789-1.014 1.011-1.669 1.67-1.194 1.194-1.527 1.526-1.148 1.148-1.561 1.562-2.434 2.434a1.2 1.2 0 1 0 1.7 1.7l3.082-3.082 1.736-1.736z" class="cls-1" transform="translate(-33.584 -33.69)"/>
    </g>
</svg>
