<svg xmlns="http://www.w3.org/2000/svg" id="iconfinder_Calendar_728916" width="17.377" height="18.602" viewBox="0 0 17.377 18.602">
    <defs>
        <style>
            .cls-1{fill:#6a6a6a}
        </style>
    </defs>
    <g id="Group_8">
        <g id="Group_7">
            <path id="Path_15" d="M19.06 1.163H17.9V.581a.579.579 0 1 0-1.158 0v.581h-1.157V.581a.579.579 0 1 0-1.158 0v.581h-1.159V.581a.579.579 0 1 0-1.158 0v.581h-1.159V.581a.579.579 0 1 0-1.158 0v.581H8.634V.581a.579.579 0 1 0-1.158 0v.581H6.317A2.321 2.321 0 0 0 4 3.488v12.789A2.321 2.321 0 0 0 6.317 18.6H19.06a2.321 2.321 0 0 0 2.317-2.325V3.488a2.321 2.321 0 0 0-2.317-2.325zm1.158 15.114a1.162 1.162 0 0 1-1.158 1.163H6.317a1.162 1.162 0 0 1-1.158-1.163V3.488a1.161 1.161 0 0 1 1.158-1.163h1.158v.581a.579.579 0 1 0 1.158 0v-.581h1.159v.581a.579.579 0 1 0 1.158 0v-.581h1.158v.581a.579.579 0 1 0 1.158 0v-.581h1.158v.581a.579.579 0 1 0 1.158 0v-.581h1.158v.581a.579.579 0 1 0 1.158 0v-.581h1.162a1.162 1.162 0 0 1 1.158 1.163z" class="cls-1" transform="translate(-4)"/>
        </g>
    </g>
    <path id="Path_16" d="M20 40v10.932h12.361V40zm8.99 1.215v1.215h-1.124v-1.215zm-4.5 3.644h-1.119v-1.215H24.5zm1.124-1.215h1.124v1.215h-1.119zM24.5 46.073v1.215h-1.129v-1.215zm1.124 0h1.124v1.215h-1.129zm2.248 0h1.118v1.215h-1.124zm0-1.215v-1.214h1.118v1.215zm-1.124-3.644v1.215h-1.129v-1.214zm-2.248 0v1.215h-1.129v-1.214zm-3.371 0h1.124v1.215h-1.129zm0 2.429h1.124v1.215h-1.129zm0 2.429h1.124v1.215h-1.129zm0 3.644V48.5h1.124v1.215zm2.248 0V48.5H24.5v1.215zm2.248 0V48.5h1.124v1.215zm2.248 0V48.5h1.117v1.215zm3.371 0h-1.13V48.5h1.124zm0-2.429h-1.13v-1.214h1.124zm0-2.429h-1.13v-1.214h1.124zm0-2.429h-1.13v-1.214h1.124z" class="cls-1" transform="translate(-17.492 -35.13)"/>
</svg>
