<svg xmlns="http://www.w3.org/2000/svg" width="22" height="24" viewBox="0 0 22 24">
  <g id="copy" transform="translate(-1)">
    <path id="Path_7275" data-name="Path 7275" d="M14.839,20.25H4.161A2.557,2.557,0,0,1,1.607,17.7V3.3A2.557,2.557,0,0,1,4.161.75H14.84A2.557,2.557,0,0,1,17.394,3.3V17.7a2.557,2.557,0,0,1-2.555,2.553Z" fill="#3131ff"/>
    <path id="Path_7276" data-name="Path 7276" d="M19.675,23H9.325A2.477,2.477,0,0,1,6.85,20.525V7.475A2.477,2.477,0,0,1,9.325,5h10.35A2.477,2.477,0,0,1,22.15,7.475v13.05A2.477,2.477,0,0,1,19.675,23Z" fill="#eceff1"/>
    <path id="Path_7277" data-name="Path 7277" d="M18.25,17h-7.5a.75.75,0,0,1,0-1.5h7.5a.75.75,0,0,1,0,1.5Z"/>
    <path id="Path_7278" data-name="Path 7278" d="M18.25,21h-7.5a.75.75,0,0,1,0-1.5h7.5a.75.75,0,0,1,0,1.5Z"/>
    <path id="Path_7279" data-name="Path 7279" d="M18.25,13.5h-7.5a.75.75,0,0,1,0-1.5h7.5a.75.75,0,0,1,0,1.5Z"/>
    <path id="Path_7280" data-name="Path 7280" d="M18.25,9.5h-7.5a.75.75,0,0,1,0-1.5h7.5a.75.75,0,0,1,0,1.5Z"/>
    <path id="Path_7281" data-name="Path 7281" d="M3.75,21A2.752,2.752,0,0,1,1,18.25V2.75A2.752,2.752,0,0,1,3.75,0h11.5a2.732,2.732,0,0,1,2.373,1.38.75.75,0,1,1-1.3.74,1.212,1.212,0,0,0-1.068-.62H3.75A1.252,1.252,0,0,0,2.5,2.75v15.5A1.252,1.252,0,0,0,3.75,19.5a.75.75,0,0,1,0,1.5Z"/>
    <path id="Path_7282" data-name="Path 7282" d="M20.25,24H8.75A2.752,2.752,0,0,1,6,21.25V6.75A2.752,2.752,0,0,1,8.75,4h11.5A2.752,2.752,0,0,1,23,6.75v14.5A2.752,2.752,0,0,1,20.25,24ZM8.75,5.5A1.252,1.252,0,0,0,7.5,6.75v14.5A1.252,1.252,0,0,0,8.75,22.5h11.5a1.252,1.252,0,0,0,1.25-1.25V6.75A1.252,1.252,0,0,0,20.25,5.5Z"/>
  </g>
</svg>
