<svg xmlns="http://www.w3.org/2000/svg" width="21.621" height="22.502" viewBox="0 0 21.621 22.502">
  <g id="Delete" transform="translate(-7.837)">
    <g id="Group_8307" data-name="Group 8307" transform="translate(7.837 0)">
      <path id="Path_7174" data-name="Path 7174" d="M184.784,133.922a.866.866,0,0,1-.881-.881V122.612a.881.881,0,0,1,1.763,0v10.429A.866.866,0,0,1,184.784,133.922Z" transform="translate(-174.003 -114.886)" fill="#f22525"/>
      <path id="Path_7175" data-name="Path 7175" d="M238.6,133.9h-.029a.9.9,0,0,1-.852-.911l.382-10.429a.883.883,0,0,1,.911-.852.9.9,0,0,1,.852.911l-.382,10.429A.9.9,0,0,1,238.6,133.9Z" transform="translate(-224.789 -114.86)" fill="#f22525"/>
      <path id="Path_7176" data-name="Path 7176" d="M124.535,133.9a.9.9,0,0,1-.881-.852l-.382-10.429a.882.882,0,1,1,1.763-.059l.382,10.429a.865.865,0,0,1-.852.911Z" transform="translate(-116.779 -114.86)" fill="#f22525"/>
      <path id="Path_7177" data-name="Path 7177" d="M28.518,3.378H22.966V1.469A1.455,1.455,0,0,0,21.5,0H15.739A1.455,1.455,0,0,0,14.27,1.469V3.378H8.718a.881.881,0,1,0,0,1.763H9.981L11.45,21.709a.869.869,0,0,0,.881.793h12.6a.869.869,0,0,0,.881-.793L27.284,5.141h1.293a.866.866,0,0,0,.881-.881A.916.916,0,0,0,28.518,3.378ZM16.033,1.763H21.2V3.378h-5.17ZM24.111,20.74H13.1l-1.381-15.6H25.433Z" transform="translate(-7.837 0)" fill="#f22525"/>
    </g>
  </g>
</svg>
