<svg xmlns="http://www.w3.org/2000/svg" width="49.767" height="31.881" viewBox="0 0 49.767 31.881">
    <defs>
        <style>
            .cls-1{fill:#1f009e}
        </style>
    </defs>
    <g id="Group_8221" transform="translate(-2.338 -.578)">
        <circle id="Ellipse_788" cx="9.231" cy="9.231" r="9.231" class="cls-1" transform="translate(18.687 13.996)"/>
        <g id="Group_8219" transform="rotate(40 18.967 52.118)">
            <g id="Group_8205" transform="rotate(10.02 .45 5.127)">
                <g id="Group_8204">
                    <path id="Path_6533" d="M20.8 4.284a14.577 14.577 0 0 0-20.645 0 .522.522 0 1 0 .739.737 13.533 13.533 0 0 1 19.136-.028l.029.029a.522.522 0 1 0 .739-.737z" class="cls-1"/>
                </g>
            </g>
            <g id="Group_8207" transform="rotate(10.02 -28.352 24.64)">
                <g id="Group_8206">
                    <path id="Path_6534" d="M13.152 2.7a9.2 9.2 0 0 0-13.023 0 .461.461 0 0 0 .651.651 8.28 8.28 0 0 1 11.71-.01l.011.011a.461.461 0 0 0 .651-.651z" class="cls-1"/>
                </g>
            </g>
            <g id="Group_8209" transform="rotate(10.02 -56.347 41.094)">
                <g id="Group_8208">
                    <path id="Path_6535" d="M6.6 1.348l-.009-.009a4.58 4.58 0 0 0-6.472 0 .381.381 0 1 0 .528.55l.008-.009a3.817 3.817 0 0 1 5.4 0 .381.381 0 0 0 .545-.532z" class="cls-1"/>
                </g>
            </g>
        </g>
        <g id="Group_8222" transform="rotate(140 10.714 9.782)">
            <g id="Group_8205-2" transform="matrix(.985 -.174 .174 .985 0 8.465)">
                <g id="Group_8204-2">
                    <path id="Path_6533-2" d="M20.8.89a14.489 14.489 0 0 1-10.325 4.285A14.488 14.488 0 0 1 .152.89.522.522 0 0 1 .891.153a13.533 13.533 0 0 0 19.138.029l.029-.029A.522.522 0 1 1 20.8.89z" class="cls-1"/>
                </g>
            </g>
            <g id="Group_8207-2" transform="rotate(-10.02 29.132 -16.13)">
                <g id="Group_8206-2">
                    <path id="Path_6534-2" d="M13.152.781a9.149 9.149 0 0 1-6.512 2.7A9.149 9.149 0 0 1 .129.781.461.461 0 0 1 .781.129 8.28 8.28 0 0 0 12.49.14l.01-.011a.461.461 0 0 1 .651.651z" class="cls-1"/>
                </g>
            </g>
            <g id="Group_8209-2" transform="rotate(-10.02 9.616 -33.318)">
                <g id="Group_8208-2">
                    <path id="Path_6535-2" d="M6.6.647l-.011.009A4.561 4.561 0 0 1 3.353 2 4.56 4.56 0 0 1 .117.656a.381.381 0 1 1 .529-.55l.009.01a3.817 3.817 0 0 0 5.4 0A.381.381 0 0 1 6.6.647z" class="cls-1"/>
                </g>
            </g>
        </g>
        <g id="Union_11" fill="none" stroke="none" stroke-linecap="round" stroke-linejoin="round">
            <path d="M15.386 1.54L8.464 9.232zM0 0l8.464 9.232z" transform="translate(20.143 16.602)"/>
            <path fill="#fff" d="M0 0l8.464 9.232L0 0m15.386 1.54L8.464 9.232l6.922-7.692M0-.6c.162 0 .324.065.442.195L8.46 8.339l6.481-7.2c.119-.132.282-.2.446-.2.143 0 .287.051.401.155.247.221.267.6.045.847L8.915 9.627c-.009.01-.017.02-.027.028-.047.048-.101.086-.159.115-.082.04-.172.061-.262.062h-.004c-.087 0-.175-.02-.256-.058-.06-.028-.117-.068-.167-.118l-.024-.025L-.442.405C-.666.161-.65-.218-.405-.442-.29-.548-.145-.6 0-.6z" transform="translate(20.143 16.602)"/>
        </g>
    </g>
</svg>
