<svg xmlns="http://www.w3.org/2000/svg" width="156.33" height="32.915" viewBox="0 0 156.33 32.915">
    <defs>
        <linearGradient id="linear-gradient" x1=".5" x2=".5" y2="1" gradientUnits="objectBoundingBox">
            <stop offset="0" stop-color="#171891"/>
            <stop offset="1" stop-color="#4fa94e"/>
        </linearGradient>
        <style>
            .cls-1{fill:#26009c}.cls-2{fill:#1f009e}.cls-4{fill:#4db151}
        </style>
    </defs>
    <g id="Group_7927" transform="translate(-2649.974 -4378.475)">
        <g id="Group_31" transform="translate(2649.974 4378.475)">
            <path id="Exclusion_16" d="M13.069 24.988a25.782 25.782 0 0 1-5.174-.466 10.653 10.653 0 0 1-4.338-1.8 8.244 8.244 0 0 1-2.666-3.86 16.349 16.349 0 0 1-.86-4.662 26.447 26.447 0 0 1 .347-5.691A12.087 12.087 0 0 1 2.7 4.2a11.32 11.32 0 0 1 3.609-2.889A12.924 12.924 0 0 1 12.2 0a18.547 18.547 0 0 1 2.461.171c3.579.482 6.182 1.873 7.739 4.136a8.991 8.991 0 0 1 1.268 2.8 11.471 11.471 0 0 1 .366 2.643 11.913 11.913 0 0 1-.23 2.735H6.4a9.984 9.984 0 0 0 .188 2.828 7.791 7.791 0 0 0 .928 2.416 6.005 6.005 0 0 0 2.1 2.09 9.16 9.16 0 0 0 4.422.836 27.308 27.308 0 0 0 4.2-.355 22.079 22.079 0 0 0 3.419-.792l-.738 4.756a46.875 46.875 0 0 1-7.85.724zm-.362-20.9a6.008 6.008 0 0 0-3.285.886A5.786 5.786 0 0 0 7.57 6.925a7.913 7.913 0 0 0-1 2.835h11.265a6.732 6.732 0 0 0-.1-1.488 5.422 5.422 0 0 0-1.264-2.747 4.888 4.888 0 0 0-3.745-1.435z" class="cls-1" transform="translate(0 7.795)"/>
            <path id="Path_289" d="M2644.046 4768.367l9.9-12.483-7.8-11.524h7.8l4.144 6.577 5.064-6.577h7.249l-8.927 11.524 8.481 12.483h-7.618l-5.137-7.533-5.728 7.533z" class="cls-1" transform="translate(-2620.136 -4736.003)"/>
            <path id="Path_290" d="M2726.636 4764.093c-.153.1-1.222 4.1-1.222 4.1s-7.1.8-10.248-1.3-4.154-8.881 2.14-11.462 11.969-2.251 12.091-5.605-4.423-2.722-4.423-2.722a34.059 34.059 0 0 0-9.224 1.943c.371-2.615.714-4.4.714-4.4s12.587-2.58 16.81-.322 2.577 5.987 2.573 11.679-.471 11.793-.471 11.793h-6.676l.7-12.367a23.616 23.616 0 0 1-5.965 2.128c-2.164.406-5.264 1.985-4.252 5.7 1.649 2.302 5.105 1.393 7.453.835z" class="cls-1" transform="translate(-2661.448 -4735.43)"/>
            <path id="Path_293" d="M2726.636 4764.093c-.153.1-1.222 4.1-1.222 4.1s-7.1.8-10.248-1.3-4.154-8.881 2.14-11.462 11.969-2.251 12.091-5.605-4.423-2.722-4.423-2.722a34.059 34.059 0 0 0-9.224 1.943c.371-2.615.714-4.4.714-4.4s12.587-2.58 16.81-.322 2.577 5.987 2.573 11.679-.471 11.793-.471 11.793h-6.676l.7-12.367a23.616 23.616 0 0 1-5.965 2.128c-2.164.406-5.264 1.985-4.252 5.7 1.649 2.302 5.105 1.393 7.453.835z" class="cls-1" transform="translate(-2600.544 -4735.43)"/>
            <path id="Path_291" d="M2782.8 4755.838h6.8s-.055-16.335 1.314-32.363a60.144 60.144 0 0 1-7.132 0z" class="cls-1" transform="translate(-2703.604 -4723.475)"/>
            <path id="Path_292" d="M2829.307 4762.461l-.565 4.94s-9.559 2.382-14.926-1.3-4.391-11.856-4.35-12.085 1.52-6.936 6.469-9.524 13.791-.384 13.791-.384v5.231s-5.029-1.866-8.741-.81c-4.443 1.074-8.138 10.944-1.73 13.936 3.865 1.905 10.052-.004 10.052-.004z" class="cls-1" transform="translate(-2719.636 -4735.325)"/>
        </g>
        <path id="iconfinder_registered_1608810" d="M3.3 2.224a.4.4 0 0 0-.19-.383.843.843 0 0 0-.37-.057h-.393v.889h.513a.43.43 0 0 0 .323-.117.457.457 0 0 0 .117-.332zm.164.9l.648 1.18a.1.1 0 0 1 0 .1.088.088 0 0 1-.085.051H3.54a.09.09 0 0 1-.089-.055l-.613-1.154h-.49v1.107a.1.1 0 0 1-.1.1h-.426a.1.1 0 0 1-.1-.1V1.316a.1.1 0 0 1 .1-.1h.93a1.773 1.773 0 0 1 .6.076.821.821 0 0 1 .424.345 1.048 1.048 0 0 1 .155.569 1.027 1.027 0 0 1-.134.524.85.85 0 0 1-.365.346q.019.03.029.049zM2.834.506a2.266 2.266 0 0 0-.9.185A2.3 2.3 0 0 0 .691 1.93a2.3 2.3 0 0 0 0 1.809A2.3 2.3 0 0 0 1.93 4.978a2.3 2.3 0 0 0 1.809 0 2.3 2.3 0 0 0 1.239-1.239 2.3 2.3 0 0 0 0-1.809A2.3 2.3 0 0 0 3.739.691a2.266 2.266 0 0 0-.905-.185zm2.835 2.328a2.771 2.771 0 0 1-.225 1.1 2.785 2.785 0 0 1-1.509 1.51 2.81 2.81 0 0 1-2.2 0 2.785 2.785 0 0 1-1.51-1.509 2.81 2.81 0 0 1 0-2.2A2.785 2.785 0 0 1 1.734.225a2.81 2.81 0 0 1 2.2 0 2.785 2.785 0 0 1 1.51 1.509 2.771 2.771 0 0 1 .225 1.1z" transform="translate(2792.848 4378.93)"/>
        <g id="Group_30" transform="translate(2788.614 4387.995)">
            <path id="Rectangle_47" d="M0 0H5.666V5.688H0z" class="cls-2"/>
            <path id="Rectangle_49" d="M0 0H5.666V5.688H0z" class="cls-2" transform="translate(5.649 5.688)"/>
            <path id="Rectangle_51" fill="url(#linear-gradient)" d="M0 0H5.666V5.688H0z" transform="translate(12.024 8.532)"/>
            <path id="Rectangle_48" d="M0 0H5.666V4.977H0z" class="cls-4" transform="translate(0 17.774)"/>
            <path id="Rectangle_50" d="M0 0H5.666V5.688H0z" class="cls-4" transform="translate(5.649 12.086)"/>
        </g>
    </g>
</svg>
