<svg xmlns="http://www.w3.org/2000/svg" width="20.535" height="20.315" viewBox="0 0 20.535 20.315">
    <g>
        <path fill="#acacac" d="M79.626 137.937a5.834 5.834 0 1 0-1.709 4.113 5.606 5.606 0 0 0 1.709-4.113zm5.566 9.5a1.686 1.686 0 0 1-1.663 1.663 1.544 1.544 0 0 1-1.169-.494l-3.37-3.138a8.9 8.9 0 0 1-5.185 1.611 8.988 8.988 0 0 1-3.554-.721 8.958 8.958 0 0 1-4.873-4.873 9.117 9.117 0 0 1 0-7.108 8.958 8.958 0 0 1 4.873-4.873 9.118 9.118 0 0 1 7.108 0 8.958 8.958 0 0 1 4.873 4.873 8.989 8.989 0 0 1 .721 3.554 8.9 8.9 0 0 1-1.611 5.184l3.37 3.151a1.592 1.592 0 0 1 .48 1.176z" transform="translate(-31.873 -17.789) translate(-32.784 -111)"/>
    </g>
</svg>
