<svg xmlns="http://www.w3.org/2000/svg" width="332.865" height="256.011" viewBox="0 0 332.865 256.011">
    <defs>
        <style>
            .cls-2{fill:#efefef}.cls-3{fill:#3f3d56}.cls-4{fill:#3131ff}.cls-5{fill:#2f2e41}.cls-6{fill:#a0616a}.cls-7{fill:#d0cde1}
        </style>
    </defs>
    <g id="Group_8332" transform="translate(-921.992 -411.832)">
        <path id="Path_7231" fill="#efefef" d="M577.151 444.488H244.286V370.9h276.879z" opacity="0.5" transform="translate(677.706 139.008)"/>
        <g id="Group_8329" transform="translate(943.133 411.832)">
            <path id="Path_7200" d="M84.259 133.867H27V96.205h52.632z" class="cls-2" transform="translate(-18.733 -66.747)"/>
            <circle id="Ellipse_845" cx="5.205" cy="5.205" r="5.205" class="cls-3" transform="translate(38.122 35.84)"/>
            <path id="Path_7201" d="M314.45 89.648c.493-.56 1-1.117 1.519-1.656l.539.514c-.508.532-1.013 1.082-1.5 1.634z" class="cls-3" transform="translate(-256.594 -70.832)"/>
            <path id="Path_7202" d="M330.181 45.933c1.138-1.01 2.332-1.984 3.548-2.895l.447.6c-1.2.9-2.378 1.86-3.5 2.856zm7.324-5.486c1.288-.807 2.627-1.571 3.977-2.269l.342.662c-1.333.689-2.653 1.442-3.924 2.238zm8.129-4.2c1.4-.583 2.847-1.115 4.3-1.583l.229.709c-1.43.461-2.856.987-4.239 1.562zm8.878-2.086l-.171-.725c1.482-.349 2.995-.64 4.495-.866l.111.737c-1.48.223-2.972.51-4.435.854zm8.925-1.342l-.05-.743c1.517-.1 3.057-.141 4.576-.117l-.012.745c-1.5-.024-3.018.015-4.515.115zm9.024.145l.074-.741c1.513.15 3.04.366 4.536.642l-.135.733c-1.477-.272-2.982-.485-4.475-.633zm27.914 98.136c1.19-.911 2.357-1.884 3.469-2.893l.5.552c-1.128 1.022-2.31 2.009-3.516 2.932zm-19.033-96.5l.195-.719c1.467.4 2.936.862 4.367 1.38l-.253.7c-1.412-.512-2.862-.97-4.309-1.361zm25.72 90.44c1.024-1.1 2.016-2.247 2.947-3.423l.584.462c-.944 1.192-1.949 2.36-2.987 3.469zm-17.229-87.37l.31-.677c1.383.633 2.756 1.331 4.082 2.075l-.364.649c-1.309-.734-2.661-1.423-4.028-2.047zm22.832 80.292c.832-1.249 1.622-2.547 2.349-3.859l.652.361c-.736 1.33-1.537 2.646-2.381 3.911zm-14.958-75.876l.416-.617c1.26.85 2.5 1.762 3.688 2.712l-.465.581c-1.171-.938-2.395-1.838-3.639-2.676zm19.332 67.978c.617-1.368 1.185-2.778 1.687-4.191l.7.25c-.51 1.432-1.085 2.861-1.71 4.248zm-12.286-62.337l.512-.541c1.105 1.045 2.18 2.148 3.194 3.278l-.555.5c-1.004-1.118-2.061-2.207-3.151-3.237zm15.312 53.83c.385-1.452.714-2.937.977-4.411l.733.131c-.267 1.5-.6 3-.99 4.471zm-9.288-47.113l.594-.45c.918 1.212 1.8 2.476 2.609 3.758l-.629.4c-.804-1.266-1.67-2.513-2.575-3.708zm10.875 38.225c.14-1.493.219-3.011.235-4.512l.745.008c-.016 1.521-.1 3.06-.238 4.574zm-6.042-30.607l.66-.345c.7 1.345 1.362 2.738 1.954 4.14l-.686.29c-.586-1.384-1.238-2.758-1.929-4.085zm6.138 21.579c-.108-1.493-.28-3-.512-4.488l.736-.115c.235 1.5.41 3.036.519 4.549zm-2.628-13.266l.708-.233c.474 1.442.9 2.928 1.252 4.4l-.724.175c-.356-1.453-.768-2.917-1.236-4.342z" class="cls-3" transform="translate(-267.508 -31.952)"/>
            <path id="Path_7203" d="M541.012 365.489c.636-.372 1.273-.761 1.893-1.158l.4.627c-.629.4-1.274.8-1.919 1.174z" class="cls-3" transform="translate(-413.783 -262.557)"/>
            <path id="Path_7204" d="M27 133.885l11.411-11.411L48.74 132.8l19.6-19.6 16.075 16.382v16.075H27z" class="cls-4" transform="translate(-18.733 -78.542)"/>
            <path id="Path_7205" d="M762.5 555.158v73.794h94.922v-73.794zm82.526 19.734h-7.352v-7.352h7.352z" class="cls-3" transform="translate(-567.451 -394.953)"/>
            <path id="Rectangle_7735" d="M0 0H6.124V7.961H0z" class="cls-3" transform="translate(41.337 131.116)"/>
            <path id="Rectangle_7736" d="M0 0H6.124V7.961H0z" class="cls-3" transform="rotate(45 -147.049 257.557)"/>
            <path id="Rectangle_7737" d="M0 0H6.124V7.961H0z" class="cls-3" transform="rotate(45 11.725 166.244)"/>
            <path id="Path_7206" d="M781.628 717.635c-.339.665-.7 1.332-1.06 1.982l-.65-.365c.36-.642.712-1.3 1.047-1.956z" class="cls-3" transform="translate(-579.536 -507.445)"/>
            <path id="Path_7207" d="M543.911 589.133c-.852 1.261-1.766 2.5-2.718 3.685l-.581-.466c.939-1.169 1.841-2.392 2.681-3.636zm-5.732 7.133c-1.047 1.1-2.154 2.174-3.289 3.186l-.5-.556c1.12-1 2.212-2.055 3.245-3.142zm-6.831 6.088c-1.213.913-2.481 1.787-3.768 2.6l-.4-.63c1.271-.8 2.521-1.665 3.718-2.565zm-8.081 4.225l.345.66c-1.349.706-2.742 1.364-4.139 1.955l-.29-.686c1.378-.583 2.752-1.232 4.083-1.929zm-8.312 3.517l.233.708c-1.444.475-2.926.9-4.4 1.25l-.174-.724c1.454-.351 2.916-.766 4.341-1.23zm-8.777 2.1l.113.736c-1.5.23-3.035.4-4.554.5l-.051-.743c1.497-.098 3.009-.265 4.491-.489zm-51.413-88.128c-.926 1.178-1.815 2.41-2.642 3.663l-.622-.41c.838-1.27 1.739-2.519 2.678-3.713zm42.4 88.751l-.01.745c-1.52-.021-3.058-.106-4.573-.252l.071-.741c1.498.144 3.016.229 4.515.248zM449.792 531.6c-.72 1.315-1.394 2.677-2 4.048l-.681-.3c.618-1.389 1.3-2.77 2.031-4.1zm38.388 80.352l-.132.733c-1.5-.27-3-.6-4.469-1l.192-.72c1.45.386 2.933.716 4.41.982zm-42.058-72.105c-.5 1.416-.939 2.87-1.317 4.322l-.721-.188c.383-1.471.832-2.945 1.335-4.38zm33.334 69.783l-.25.7c-1.432-.51-2.861-1.086-4.246-1.711l.306-.679c1.368.62 2.777 1.188 4.19 1.691zm-35.61-61.046c-.258 1.478-.458 2.985-.594 4.479l-.742-.068c.138-1.514.34-3.041.6-4.539zm27.384 57.332l-.361.651c-1.33-.738-2.645-1.539-3.908-2.382l.414-.619c1.246.834 2.543 1.623 3.855 2.351zm-28.2-48.341c-.012 1.5.038 3.022.149 4.516l-.743.055c-.113-1.514-.164-3.054-.151-4.577zm20.7 43.33l-.463.583c-1.19-.946-2.354-1.953-3.461-2.993l.51-.543c1.089 1.028 2.238 2.021 3.412 2.954zM443.7 566.58c.235 1.481.535 2.971.893 4.429l-.723.177c-.362-1.478-.667-2.988-.9-4.49zm13.454 28.147l-.553.5c-1.016-1.128-2-2.314-2.921-3.525l.593-.451c.909 1.193 1.879 2.363 2.881 3.476zm-11.3-19.378c.476 1.419 1.018 2.839 1.611 4.22l-.684.294c-.6-1.4-1.151-2.839-1.633-4.277zm5.838 12.2l-.628.4c-.817-1.279-1.6-2.614-2.306-3.955l.658-.349c.698 1.323 1.465 2.639 2.272 3.901z" class="cls-3" transform="translate(-345.284 -373.064)"/>
            <path id="Path_7208" d="M493.074 507.366c-.524.518-1.044 1.053-1.546 1.592l-.545-.508c.509-.546 1.036-1.089 1.567-1.614z" class="cls-3" transform="translate(-379.073 -361.428)"/>
            <path id="Path_7209" d="M1020.01 390.744c-.07-.115-1.727-2.881-2.3-8.626-.527-5.271-.188-14.155 4.419-26.547a53.535 53.535 0 0 0-2.121-42.607l.53-.307a47.02 47.02 0 0 1 4.436 12.568 54.828 54.828 0 0 1-2.271 30.561c-8.714 23.436-2.236 34.531-2.169 34.641z" class="cls-3" transform="translate(-744.386 -226.705)"/>
            <circle id="Ellipse_846" cx="3.981" cy="3.981" r="3.981" class="cls-4" transform="translate(268.23 76.919)"/>
            <circle id="Ellipse_847" cx="3.981" cy="3.981" r="3.981" class="cls-3" transform="translate(280.784 91.616)"/>
            <circle id="Ellipse_848" cx="3.981" cy="3.981" r="3.981" class="cls-4" transform="translate(272.211 101.415)"/>
            <circle id="Ellipse_849" cx="3.981" cy="3.981" r="3.981" class="cls-4" transform="translate(282.622 109.682)"/>
            <circle id="Ellipse_850" cx="3.981" cy="3.981" r="3.981" class="cls-3" transform="translate(269.149 122.542)"/>
            <path id="Path_7210" d="M1032.057 529.3s-3.98-9.8 7.961-17.147z" class="cls-3" transform="translate(-754.028 -365.119)"/>
            <path id="Path_7211" d="M981.637 544.169s-1.812-10.42-15.833-10.33z" class="cls-3" transform="translate(-708.503 -380.161)"/>
            <path id="Path_7212" d="M595.658 754.1a3.674 3.674 0 1 1 3.674-3.674 3.674 3.674 0 0 1-3.674 3.674zm0-6.736a3.062 3.062 0 1 0 3.062 3.062 3.062 3.062 0 0 0-3.062-3.06z" class="cls-5" transform="translate(-449.147 -527.883)"/>
            <path id="Path_7213" d="M722.115 113.347h-6.045V107.3h6.045zm-5.58-.465h5.115v-5.115h-5.115z" class="cls-3" transform="translate(-535.238 -84.231)"/>
            <path id="Path_7214" d="M188.113 658.766l-4.123-4.42 4.42-4.123 4.123 4.42zm-3.466-4.4l3.489 3.74 3.74-3.489-3.489-3.74z" class="cls-5" transform="translate(-166.08 -460.909)"/>
            <path id="Path_7215" d="M353.849 415.122H244.286V370.9h91.135z" class="cls-2" transform="translate(-169.486 -257.327)"/>
            <path id="Path_7216" d="M449.483 425.394H326.017v-54.279h101.076l.085.207zm-122.8-.67h121.798l-21.837-52.939h-99.957z" class="cls-3" transform="translate(-264.619 -267.264)"/>
            <path id="Rectangle_7738" d="M0 0H54.614V5.026H0z" class="cls-4" transform="translate(92.893 120.604)"/>
            <path id="Rectangle_7739" d="M0 0H54.614V5.026H0z" class="cls-4" transform="translate(92.893 130.991)"/>
            <path id="Rectangle_7740" d="M0 0H54.614V5.026H0z" class="cls-4" transform="translate(92.893 141.377)"/>
            <path id="Path_7217" d="M217.186 148.886H125.5V93.158h71.252l.074.2zm-91.073-.612h90.2l-19.985-54.5h-70.216z" class="cls-3" transform="translate(-125.5 -74.417)"/>
            <path id="Path_7218" d="M209.372 154.332H151.5v-43.174h57.872zm-57.259-.612h56.647v-41.95h-56.648z" class="cls-3" transform="translate(-143.539 -86.905)"/>
            <circle id="Ellipse_851" cx="5.512" cy="5.512" r="5.512" class="cls-4" transform="translate(85.736 68.651)"/>
            <circle id="Ellipse_852" cx="5.512" cy="5.512" r="5.512" class="cls-4" transform="translate(178.208 152.55)"/>
            <circle id="Ellipse_853" cx="9.274" cy="9.274" r="9.274" class="cls-6" transform="translate(213.969 64.134)"/>
            <path id="Path_7219" d="M828.949 284.456s3.091 6.956-1.159 9.661 6.956 13.911 6.956 13.911l12.366-13.139s-6.569-4.251-5.41-11.206z" class="cls-6" transform="translate(-612.081 -206.604)"/>
            <path id="Path_7220" d="M736.349 382.121l-2.7 15.457s-4.637 9.274-4.637 17.389-.773 9.661-.773 9.661-7.729 15.457-2.319 16.23 7.729-15.844 7.729-15.844 7.342-18.162 7.342-23.958l5.019-12.756z" class="cls-6" transform="translate(-540.736 -274.9)"/>
            <path id="Path_7221" d="M925.448 384.645l.773 13.525s2.705 6.956.773 19.321l-1.546 11.979s3.478 13.525 0 13.911-7.728-8.5-5.41-13.525v-4.251s-2.318-18.162-1.546-21.254l-2.7-14.684z" class="cls-6" transform="translate(-673.802 -276.651)"/>
            <path id="Path_7222" d="M657.776 697.018l3.864 10.047 8.5-1.546-5.41-10.82z" class="cls-6" transform="translate(-456.366 -481.983)"/>
            <path id="Path_7223" d="M775.04 728.773l-1.159 14.684h9.661l-.387-12.752z" class="cls-6" transform="translate(-536.919 -505.623)"/>
            <path id="Path_7224" d="M748.419 470.207L747.26 476s-2.319 1.932-2.319 3.864a3.913 3.913 0 0 1-.773 2.705s-.386 0-.773.773a4.783 4.783 0 0 1-.773 1.159s-22.8 23.186-17.776 34.779 14.684 35.165 14.684 35.165 11.206-3.478 11.206-6.183l-10.82-30.528 21.64-22.413 17.391 23.579s-3.478 41.348-1.159 41.734 15.071 3.091 15.457 1.932 2.319-52.554 1.546-54.486-11.979-25.118-11.979-25.118 1.932-2.319.773-3.091-3.091-8.115-3.091-8.115-30.143-5.027-32.075-1.549z" class="cls-5" transform="translate(-540.826 -335.163)"/>
            <path id="Path_7225" d="M808.7 319.637l-7.789-4.8s-4.577.167-5.736 1.326-8.115 4.251-8.115 4.251 1.546 46.371 4.637 44.826.773-2.7 3.091-1.546 29.755 1.546 30.141 1.546.773-.773.773-.773l1.546-23.572 5.024-19.708-14.872-6.848z" class="cls-7" transform="translate(-584.492 -227.873)"/>
            <path id="Path_7226" d="M771.094 332.9H768s-4.251 1.159-6.183 7.342-2.7 8.888-1.932 9.661 11.206 6.569 11.206 6.569z" class="cls-7" transform="translate(-565.434 -240.752)"/>
            <path id="Path_7227" d="M910.92 335.426l5.41.386s6.956 16.23 5.023 17-13.139 6.569-13.139 5.41 2.706-22.796 2.706-22.796z" class="cls-7" transform="translate(-668.549 -242.503)"/>
            <path id="Path_7228" d="M760.346 748l-3.151-1.159-7.283 9.661s-13.525 9.661-1.159 9.274c0 0 9.661-1.546 10.433-4.251 0 0 11.206-3.091 11.206-5.024s-2.575-7.083-3.413-7.213-4.315 1.42-6.633-1.288z" class="cls-5" transform="translate(-554.298 -527.945)"/>
            <path id="Path_7229" d="M904.578 794.7s-9.394-.153-9.334.117-2.645 6.453-2.258 8.771 3.864 5.41 3.091 6.956 2.318 6.183 8.5 6.569 5.41-6.569 5.41-6.569L906.9 803.2z" class="cls-5" transform="translate(-657.956 -561.119)"/>
            <path id="Path_7230" d="M824.892 231.264a17.564 17.564 0 0 1-1.451 1.11 13.787 13.787 0 0 0-1.749 1.737l-.6.669a3.074 3.074 0 0 0-1.027 1.984c.008.283.1.558.129.84.135 1.116-.547 2.343.015 3.317.163.282.414.5.593.773a1.807 1.807 0 0 1 .286 1.177 1.445 1.445 0 0 0 1.288-1.09 11 11 0 0 0 .256-1.79 1.92 1.92 0 0 1 .894-1.495c1.157-.567 2.486.907 3.722.54.863-.257 1.318-1.326 2.2-1.505a3.133 3.133 0 0 1 1.826.513c.587.266 1.377.389 1.792-.1.275-.326.3-.849.668-1.071.436-.266.983.1 1.314.494s.7.866 1.207.852c.678-.019 1.2-.921 1.84-.707.726.242.392 1.4.833 2.029.372.529 1.152.5 1.793.41a.642.642 0 0 0 .669-.858l-.268-3.551a1.715 1.715 0 0 0-.157-.709c-.187-.338-.573-.509-.835-.791-.552-.594-.525-1.636-1.212-2.068-.356-.224-.823-.218-1.176-.446-.454-.293-.6-.879-.918-1.316a2.8 2.8 0 0 0-2.017-.993c-.768-.079-1.543.016-2.315-.009-1.569-.051-3.138-.493-4.715-.234-1.377.224-1.954 1.39-2.885 2.288z" class="cls-5" transform="translate(-607.335 -168.59)"/>
        </g>
    </g>
</svg>
