<svg xmlns="http://www.w3.org/2000/svg" width="14.251" height="13.136" viewBox="0 0 14.251 13.136">
  <g id="Minimize" transform="translate(-207.943 -1044.058)">
    <g id="Group_7974" data-name="Group 7974" transform="translate(584.985 1035.761) rotate(180)">
      <path id="iconfinder_right_arrow_next_forward_navigation_3994400" d="M30.92,17.721l-5.438-5.473a.8.8,0,0,0-1.277.14,1.257,1.257,0,0,0,.116,1.542l4.6,4.631-4.6,4.631a1.257,1.257,0,0,0-.116,1.542.8.8,0,0,0,1.277.14L30.92,19.4a1.249,1.249,0,0,0,0-1.682Z" transform="translate(345.797 -33.427)" fill="#acacac"/>
    </g>
    <g id="Group_7975" data-name="Group 7975" transform="translate(591.985 1035.761) rotate(180)">
      <path id="iconfinder_right_arrow_next_forward_navigation_3994400-2" data-name="iconfinder_right_arrow_next_forward_navigation_3994400" d="M30.92,17.721l-5.438-5.473a.8.8,0,0,0-1.277.14,1.257,1.257,0,0,0,.116,1.542l4.6,4.631-4.6,4.631a1.257,1.257,0,0,0-.116,1.542.8.8,0,0,0,1.277.14L30.92,19.4a1.249,1.249,0,0,0,0-1.682Z" transform="translate(345.797 -33.427)" fill="#acacac"/>
    </g>
  </g>
</svg>
